<svg width="1600" height="1080" viewBox="0 0 1600 1080" fill="none" xmlns="http://www.w3.org/2000/svg">
  <defs>
    <linearGradient id="bgDesktop" x1="160" y1="80" x2="1450" y2="980" gradientUnits="userSpaceOnUse">
      <stop stop-color="#F7F3FF"/>
      <stop offset="1" stop-color="#EFF4FF"/>
    </linearGradient>
    <linearGradient id="desktopPanel" x1="260" y1="160" x2="1340" y2="910" gradientUnits="userSpaceOnUse">
      <stop stop-color="#FFFFFF"/>
      <stop offset="1" stop-color="#FBFAFF"/>
    </linearGradient>
    <linearGradient id="desktopCTA" x1="370" y1="0" x2="1230" y2="0" gradientUnits="userSpaceOnUse">
      <stop stop-color="#7C3AED"/>
      <stop offset="1" stop-color="#5B21B6"/>
    </linearGradient>
    <linearGradient id="desktopCard1" x1="0" y1="0" x2="1" y2="1">
      <stop stop-color="#FCE7F3"/>
      <stop offset="1" stop-color="#E9D5FF"/>
    </linearGradient>
    <linearGradient id="desktopCard2" x1="0" y1="0" x2="1" y2="1">
      <stop stop-color="#DCFCE7"/>
      <stop offset="1" stop-color="#BFDBFE"/>
    </linearGradient>
    <linearGradient id="desktopCard3" x1="0" y1="0" x2="1" y2="1">
      <stop stop-color="#FEF3C7"/>
      <stop offset="1" stop-color="#FDBA74"/>
    </linearGradient>
    <filter id="deskShadow" x="178" y="78" width="1244" height="884" filterUnits="userSpaceOnUse" color-interpolation-filters="sRGB">
      <feFlood flood-opacity="0" result="BackgroundImageFix"/>
      <feColorMatrix in="SourceAlpha" type="matrix" values="0 0 0 0 0 0 0 0 0 0 0 0 0 0 0 0 0 0 127 0" result="hardAlpha"/>
      <feOffset dy="24"/>
      <feGaussianBlur stdDeviation="28"/>
      <feColorMatrix type="matrix" values="0 0 0 0 0.180392 0 0 0 0 0.156863 0 0 0 0 0.360784 0 0 0 0.16 0"/>
      <feBlend mode="normal" in2="BackgroundImageFix" result="effect1_dropShadow_0_1"/>
      <feBlend mode="normal" in="SourceGraphic" in2="effect1_dropShadow_0_1" result="shape"/>
    </filter>
  </defs>

  <rect width="1600" height="1080" fill="url(#bgDesktop)"/>
  <text x="170" y="106" fill="#241B3D" font-family="Arial, sans-serif" font-size="34" font-weight="700">Desktop koncept</text>
  <text x="170" y="146" fill="#6B5E87" font-family="Arial, sans-serif" font-size="20">Chat ostava cisty, CTA je integrovane nad composer a karty sa rozbalia do sirokeho radu</text>

  <g filter="url(#deskShadow)">
    <rect x="235" y="170" width="1130" height="720" rx="40" fill="url(#desktopPanel)"/>
    <rect x="235" y="170" width="1130" height="92" rx="40" fill="#FFFFFF"/>
    <circle cx="310" cy="216" r="24" fill="#E9D5FF"/>
    <text x="352" y="224" fill="#1F1637" font-family="Arial, sans-serif" font-size="28" font-weight="700">Petra Novakova</text>
    <rect x="1180" y="194" width="112" height="44" rx="22" fill="#F3E8FF"/>
    <text x="1210" y="222" fill="#6D28D9" font-family="Arial, sans-serif" font-size="20" font-weight="700">online</text>

    <rect x="290" y="310" width="260" height="58" rx="26" fill="#FFFFFF" stroke="#E6E0F4"/>
    <text x="322" y="347" fill="#4C416B" font-family="Arial, sans-serif" font-size="24">Pozri sa na moje ponuky</text>

    <rect x="995" y="386" width="200" height="58" rx="26" fill="#7C3AED"/>
    <text x="1052" y="423" fill="#FFFFFF" font-family="Arial, sans-serif" font-size="24">Jasne</text>

    <rect x="290" y="462" width="346" height="58" rx="26" fill="#FFFFFF" stroke="#E6E0F4"/>
    <text x="322" y="499" fill="#4C416B" font-family="Arial, sans-serif" font-size="24">Mozeme to vyriesit cez profil?</text>

    <rect x="918" y="538" width="277" height="58" rx="26" fill="#7C3AED"/>
    <text x="960" y="575" fill="#FFFFFF" font-family="Arial, sans-serif" font-size="24">Vyberiem si konkretnu kartu</text>

    <rect x="310" y="620" width="980" height="208" rx="34" fill="#FFFFFF" stroke="#E8E1F8" stroke-width="2"/>
    <rect x="334" y="644" width="932" height="64" rx="24" fill="url(#desktopCTA)"/>
    <text x="372" y="685" fill="#FFFFFF" font-family="Arial, sans-serif" font-size="26" font-weight="700">Vytvorit ziadost z ponuky</text>
    <text x="965" y="685" fill="#DDD6FE" font-family="Arial, sans-serif" font-size="18">Klikni na kartu a otvori sa profil s rovnakym highlightom ako vo vyhladavani</text>

    <g transform="translate(334 728)">
      <rect width="280" height="76" rx="28" fill="#FFFFFF" stroke="#8B5CF6" stroke-width="4"/>
      <rect x="18" y="16" width="72" height="44" rx="16" fill="url(#desktopCard1)"/>
      <text x="106" y="34" fill="#241B3D" font-family="Arial, sans-serif" font-size="20" font-weight="700">Fotenie portrtov</text>
      <text x="106" y="58" fill="#6B5E87" font-family="Arial, sans-serif" font-size="15">vybrata karta</text>
    </g>

    <g transform="translate(646 728)">
      <rect width="280" height="76" rx="28" fill="#FFFFFF" stroke="#E6E0F4" stroke-width="2"/>
      <rect x="18" y="16" width="72" height="44" rx="16" fill="url(#desktopCard2)"/>
      <text x="106" y="34" fill="#241B3D" font-family="Arial, sans-serif" font-size="20" font-weight="700">Doucovanie anglictiny</text>
      <text x="106" y="58" fill="#6B5E87" font-family="Arial, sans-serif" font-size="15">45 min • online</text>
    </g>

    <g transform="translate(958 728)">
      <rect width="280" height="76" rx="28" fill="#FFFFFF" stroke="#E6E0F4" stroke-width="2"/>
      <rect x="18" y="16" width="72" height="44" rx="16" fill="url(#desktopCard3)"/>
      <text x="106" y="34" fill="#241B3D" font-family="Arial, sans-serif" font-size="20" font-weight="700">Pomoc s prezentaciou</text>
      <text x="106" y="58" fill="#6B5E87" font-family="Arial, sans-serif" font-size="15">kratka konzultacia</text>
    </g>

    <rect x="380" y="848" width="840" height="18" rx="9" fill="#E5E7EB"/>
  </g>
</svg>
